<svg xmlns="http://www.w3.org/2000/svg" viewBox="0 0 16 13" width="16" height="13">
	<style>
		tspan { white-space:pre }
		.shp0 { fill: #c2cfd7 } 
	</style>
	<g id="Section">
		<g id="Footer">
			<g id="Social Icons">
				<path id="Tweeter" class="shp0" d="M15.74 1.55C15.19 1.8 14.6 1.96 13.99 2.03C14.62 1.66 15.1 1.06 15.33 0.34C14.74 0.69 14.08 0.95 13.39 1.09C12.83 0.49 12.04 0.12 11.16 0.12C9.47 0.12 8.11 1.49 8.11 3.18C8.11 3.41 8.14 3.65 8.19 3.87C5.65 3.75 3.4 2.53 1.89 0.68C1.63 1.13 1.48 1.66 1.48 2.22C1.48 3.28 2.02 4.21 2.84 4.76C2.34 4.74 1.87 4.6 1.45 4.37C1.45 4.39 1.45 4.4 1.45 4.41C1.45 5.89 2.51 7.13 3.9 7.41C3.65 7.48 3.38 7.52 3.1 7.52C2.9 7.52 2.71 7.5 2.52 7.46C2.91 8.67 4.04 9.56 5.38 9.58C4.33 10.4 3.02 10.89 1.58 10.89C1.34 10.89 1.09 10.87 0.86 10.85C2.21 11.71 3.81 12.22 5.54 12.22C11.15 12.22 14.23 7.56 14.23 3.53C14.23 3.4 14.22 3.27 14.22 3.13C14.81 2.7 15.33 2.17 15.74 1.55Z" />
			</g>
		</g>
	</g>
</svg>